<?xml version="1.0" encoding="UTF-8" standalone="no"?><!DOCTYPE svg PUBLIC "-//W3C//DTD SVG 1.1//EN" "http://www.w3.org/Graphics/SVG/1.1/DTD/svg11.dtd"><svg width="100%" height="100%" viewBox="0 0 1032 261" version="1.1" xmlns="http://www.w3.org/2000/svg" xmlns:xlink="http://www.w3.org/1999/xlink" xml:space="preserve" xmlns:serif="http://www.serif.com/" style="fill-rule:evenodd;clip-rule:evenodd;stroke-linejoin:round;stroke-miterlimit:2;"><rect id="Artboard3" x="0" y="0" width="1031.36" height="260.864" style="fill:none;"/><g><path d="M69.466,108.865c12.573,-70.409 28.641,-85.961 44.476,-85.961c26.862,-0 21.328,45.242 14.056,85.961c-10.907,61.077 -23.5,85.677 -44.707,85.677c-18.946,0 -25.388,-20.924 -13.825,-85.677Zm46.344,-96.423c-66.45,-0 -102.705,36.759 -113.359,96.423c-10.554,59.097 12.471,96.422 78.921,96.422c67.015,0 103.038,-37.042 113.642,-96.422c10.705,-59.947 -11.906,-96.423 -79.204,-96.423Z" style="fill:#fff;fill-rule:nonzero;"/><path d="M287.822,0.848l-0.414,-0.848l-74.064,6.221l-1.616,9.048l7.715,1.131c4.373,0.849 5.514,3.959 4.1,11.877l-31.155,174.466l1.959,1.696l27.448,-9.614c10.634,5.373 24.58,9.614 42.395,9.614c42.98,0 83.678,-14.138 95.696,-81.436c10.655,-59.664 -20.429,-69.278 -37.961,-69.278c-13.855,0 -25.358,4.242 -46.272,15.27l12.169,-68.147Zm-15.3,85.678c1.363,-7.635 6.261,-11.31 13.613,-11.31c16.966,-0 13.764,35.345 9.674,58.249c-6.867,38.456 -16.178,60.512 -28.337,60.512c-8.483,-0 -12.977,-6.504 -10.099,-22.621l15.149,-84.83Z" style="fill:#fff;fill-rule:nonzero;"/><path d="M437.616,200.763l1.615,-9.048c-14.269,-0.849 -15.865,-1.414 -13.289,-15.835l31.206,-174.749l-0.929,-1.131l-73.499,6.221l-1.616,9.048l7.716,1.131c4.372,0.849 5.513,3.959 4.1,11.877l-26.359,147.603c-2.575,14.421 -4.373,14.986 -18.945,15.835l-1.616,9.048l91.616,0Z" style="fill:#fff;fill-rule:nonzero;"/><path d="M460.197,61.643l-1.616,9.048l7.948,1.414c4.373,0.848 5.231,3.959 3.868,11.593l-16.462,92.182c-2.575,14.421 -4.09,14.986 -18.662,15.835l-1.616,9.048l92.747,0l1.616,-9.048c-14.27,-0.849 -15.583,-1.414 -13.007,-15.835l21.561,-120.741l-0.979,-0.848l-75.398,7.352Zm46,-12.159c17.249,-0 29.812,-10.18 32.185,-23.47c2.373,-13.29 -6.554,-23.469 -23.803,-23.469c-16.965,-0 -29.528,10.179 -31.902,23.469c-2.373,13.29 6.554,23.47 23.52,23.47Z" style="fill:#fff;fill-rule:nonzero;"/><path d="M702.992,54.291l-1.414,-0l-30.206,7.635c-10.916,-5.373 -29.074,-8.201 -41.798,-8.201c-52.029,0 -83.77,25.732 -93.111,78.044c-8.13,45.525 5.402,72.67 42.444,72.67c11.594,0 26.176,-5.655 40.486,-16.117l-6.968,39.021c-2.626,14.704 -3.01,15.269 -20.642,15.835l-1.616,9.048l93.312,0l1.616,-9.048c-14.32,-0.566 -15.633,-1.131 -13.007,-15.835l30.904,-173.052Zm-78.499,105.471c-3.383,18.946 -7.715,22.621 -15.35,22.621c-9.049,0 -17.087,-13.572 -9.159,-57.966c7.776,-43.546 20.884,-59.947 29.085,-59.947c7.351,0 11.684,4.242 7.998,24.884l-12.574,70.408Z" style="fill:#fff;fill-rule:nonzero;"/><path d="M794.182,200.763l68.995,0l1.616,-9.048c-14.27,-0.849 -15.583,-1.414 -13.007,-15.835l21.258,-119.044l-1.777,-1.131l-72.428,3.393l-1.616,9.048l7.665,1.414c4.423,0.566 5.514,3.959 4.15,11.594l-12.22,68.429c-4.948,27.711 -11.876,31.669 -20.076,31.669c-7.352,0 -11.826,-8.2 -8.947,-24.317l17.875,-100.099l-1.495,-1.131l-72.428,3.393l-1.616,9.048l7.665,1.414c4.423,0.566 5.514,3.959 4.151,11.594l-13.988,78.326c-6.009,33.649 9.786,44.959 38.911,44.959c21.49,0 40.89,-18.38 46.303,-21.773l1.009,18.097Z" style="fill:#fff;fill-rule:nonzero;"/><path d="M941.079,117.63c4.393,-24.6 12.321,-53.16 23.632,-53.16c12.724,0 7.422,29.691 5.705,39.305c-2.02,11.31 -4.433,12.159 -11.886,12.724l-17.451,1.131Zm67.874,11.028c9.614,0 13.017,-4.807 14.734,-14.421c2.626,-14.704 10.241,-60.512 -57.623,-60.512c-48.918,0 -80.528,26.58 -89.364,76.064c-9.493,53.16 10.704,74.65 61.036,74.65c29.973,0 57.553,-8.766 74.458,-43.263l-6.645,-3.959c-12.532,19.511 -23.6,22.904 -42.546,22.904c-23.186,0 -28.963,-21.49 -23.893,-51.463l69.843,0Z" style="fill:#fff;fill-rule:nonzero;"/></g></svg>